<?xml version="1.0" encoding="UTF-8"?>
<svg width="287px" height="336px" viewBox="0 0 287 336" version="1.1" xmlns="http://www.w3.org/2000/svg" xmlns:xlink="http://www.w3.org/1999/xlink">
    <!-- Generator: Sketch 43.2 (39069) - http://www.bohemiancoding.com/sketch -->
    <title>Group</title>
    <desc>Created with Sketch.</desc>
    <defs></defs>
    <g id="Page-1" stroke="none" stroke-width="1" fill="none" fill-rule="evenodd">
        <g id="Group" transform="translate(7.000000, 0.000000)">
            <path d="M82.2091454,213.921337 C85.1078804,242.126654 90.4394091,266.27889 100.139039,272.377317 C103.449586,274.458749 116.066374,296.567395 125.516034,312.945464 C130.295173,321.228625 130.618738,329.997289 135.937285,329.997289 C141.208294,329.997289 140.00333,322.281001 145.415354,312.945464 C154.871189,296.634509 170.336765,274.363697 174.078612,272.377317 C184.223989,266.991587 189.159963,243.430607 191.381815,215.605648 M192.152938,125.990836 C191.77769,115.655381 191.419637,108.298222 191.419637,105.819652 C191.419637,96.3555066 188.041878,78.0168029 177.811026,65.3919498 C167.580174,52.7670966 151.243418,46.3929026 135.937285,46.3929026 C120.43351,46.3929026 102.314729,52.8813088 91.9749993,65.3919498 C81.6216857,77.9190267 79.0576032,96.4744825 79.0576032,105.819652 C79.0576032,108.733664 78.970098,114.414792 78.9160962,121.987618" id="Oval-6" stroke="#000000" stroke-width="11"></path>
            <path d="M45,235.84201 C69.8528137,235.84201 80.8782426,217.380268 95.1526502,195.998768 C105.885569,179.92203 136.583822,127.193008 136.583822,115.075027 C136.583822,102.957045 74.6433788,130.003116 50.8643987,138.295289 C27.7355805,146.360739 0,165.989196 0,190.84201 C0,215.694824 20.1471863,235.84201 45,235.84201 Z" id="Oval-7" stroke="#000000" stroke-width="14"></path>
            <path d="M181,235.84201 C205.852814,235.84201 216.878243,217.380268 231.15265,195.998768 C241.885569,179.92203 272.583822,127.193008 272.583822,115.075027 C272.583822,102.957045 210.643379,130.003116 186.864399,138.295289 C163.735581,146.360739 136,165.989196 136,190.84201 C136,215.694824 156.147186,235.84201 181,235.84201 Z" id="Oval-7" stroke="#000000" stroke-width="14" transform="translate(204.291911, 173.921005) scale(-1, 1) translate(-204.291911, -173.921005) "></path>
            <polygon id="Triangle-2" fill="#000000" points="136.5 103 153 107 120 107"></polygon>
            <path d="M97.5,268.5 L172.606591,268.5" id="Line" stroke="#000000" stroke-width="5" stroke-linecap="square"></path>
            <path d="M90.5,238.5 L183.505376,238.5" id="Line" stroke="#000000" stroke-width="5" stroke-linecap="square"></path>
            <path d="M93.5,209.5 L180.522985,209.5" id="Line" stroke="#000000" stroke-width="5" stroke-linecap="square"></path>
            <path d="M104.5,180.5 L165.5,180.5" id="Line" stroke="#000000" stroke-width="5" stroke-linecap="square"></path>
            <path d="M126.237323,155.5 L147.5,155.5" id="Line" stroke="#000000" stroke-width="5" stroke-linecap="square"></path>
            <path d="M101.5,51.5 C101.5,51.5 98.6988624,32.4830199 94.1957821,26.7134482 C89.6927017,20.9438765 69.5,10.5 69.5,10.5" id="Line" stroke="#000000" stroke-width="5" stroke-linecap="square"></path>
            <path d="M199,52 C199,52 196.198862,32.9830199 191.695782,27.2134482 C187.192702,21.4438765 167,11 167,11" id="Line" stroke="#000000" stroke-width="5" stroke-linecap="square" transform="translate(183.000000, 31.500000) scale(-1, 1) translate(-183.000000, -31.500000) "></path>
            <circle id="Oval-8" fill="#000000" cx="205.5" cy="6.5" r="6.5"></circle>
            <circle id="Oval-8" fill="#000000" cx="63.5" cy="6.5" r="6.5"></circle>
        </g>
    </g>
</svg>